<svg xmlns="http://www.w3.org/2000/svg" viewBox="0 0 1009.95 173"><defs><style>.cls-1{fill:#4a4b55;}.cls-2{fill:#fdfdfd;}.cls-3{fill:#fd5bb8;}.cls-4{fill:#2f303c;}.cls-5{fill:#2b2d37;}.cls-6{fill:#3f414b;}.cls-7{fill:#292a34;}.cls-8{fill:#33343f;}.cls-9{fill:#383a45;}.cls-10{fill:#353742;}.cls-11{fill:#3b3d48;}.cls-12{fill:#43444e;}.cls-13{fill:#e051a3;}.cls-14{fill:#c49cfc;}.cls-15{fill:#f95ab5;}.cls-16{fill:#ab89de;}</style></defs><title>Fichier 1</title><g id="Calque_2" data-name="Calque 2"><g id="Calque_1-2" data-name="Calque 1"><path class="cls-1" d="M69.29,118.05V82.75c0-2.81-.11-5.4-.32-7.79a15.66,15.66,0,0,0-1.37-5.6,7.08,7.08,0,0,0-3.12-3.23,12,12,0,0,0-5.46-1A14.46,14.46,0,0,0,52.22,67a35.45,35.45,0,0,0-7.52,5.6c0,.62.08,1.36.14,2.21s.08,1.87.08,3v40.17H34.65V82.75c0-2.81-.11-5.4-.33-7.79A15.66,15.66,0,0,0,33,69.36a7.06,7.06,0,0,0-3.11-3.23,12.12,12.12,0,0,0-5.47-1,14.24,14.24,0,0,0-7,2.07,37.93,37.93,0,0,0-7.11,5.3v45.58H0V57H10.27v6.77a37.25,37.25,0,0,1,8-6.25A17.54,17.54,0,0,1,27,55.31a18.58,18.58,0,0,1,9.59,2.46A15.41,15.41,0,0,1,43,65.86,41.12,41.12,0,0,1,52,58a18.27,18.27,0,0,1,9.61-2.68,19.92,19.92,0,0,1,7.16,1.23,14.06,14.06,0,0,1,5.63,4,19.15,19.15,0,0,1,3.8,6.94,34.56,34.56,0,0,1,1.34,10.43v40.17Z" transform="translate(0 0)"/><path class="cls-1" d="M105.2,46.79H93.5V36.13h11.7Zm-.71,71.26H94.21V57h10.28Z" transform="translate(0 0)"/><path class="cls-1" d="M136.07,119.53a38.77,38.77,0,0,1-11.44-1.64,51.28,51.28,0,0,1-8.83-3.5V102.86h.55c.87.69,1.9,1.46,3.08,2.29a30.47,30.47,0,0,0,4.73,2.63,43.48,43.48,0,0,0,5.77,2.13,22.86,22.86,0,0,0,6.53.93,25.53,25.53,0,0,0,5.24-.58,12.51,12.51,0,0,0,4.16-1.45,8.74,8.74,0,0,0,2.76-2.67,8.58,8.58,0,0,0,.84-4.27,7.18,7.18,0,0,0-2-5.52q-2-1.84-7.08-3.11-2-.49-5.14-1.15c-2.11-.43-4.06-.91-5.84-1.42-4.67-1.35-8-3.43-10.17-6.26a16.6,16.6,0,0,1-3.17-10.24,16.72,16.72,0,0,1,6.23-13.45q6.24-5.19,16.56-5.19a42.74,42.74,0,0,1,10.22,1.26A35.69,35.69,0,0,1,157.71,60v11h-.54A32.2,32.2,0,0,0,148.4,66a27.62,27.62,0,0,0-9.76-1.81,16.2,16.2,0,0,0-8.58,2.13,7,7,0,0,0-3.49,6.45c0,2.55.69,4.46,2.07,5.71a16,16,0,0,0,6.67,3.09q2.3.6,5.11,1.17c1.87.39,3.85.83,5.93,1.34q6.78,1.69,10.19,5.63T160,100.45a18.21,18.21,0,0,1-1.56,7.46,16.37,16.37,0,0,1-4.57,6,23.13,23.13,0,0,1-7.4,4.15A32.1,32.1,0,0,1,136.07,119.53Z" transform="translate(0 0)"/><path class="cls-1" d="M220.12,118.05H206.63L183.84,88.59l-4.05,3.94v25.52H169.52V33h10.27V82.8L204,57h12.78L191.65,82.53Z" transform="translate(0 0)"/><path class="cls-1" d="M274.5,87.56q0,15.41-7.43,23.8t-19.79,8.38q-12.74,0-20-8.66T220,87.56q0-15.3,7.51-23.78t19.81-8.47q12.36,0,19.79,8.45T274.5,87.56Zm-10.6,0q0-11.86-4.32-17.63t-12.3-5.76q-8,0-12.37,5.76t-4.35,17.63q0,11.47,4.35,17.4t12.37,5.93q7.93,0,12.27-5.82T263.9,87.56Z" transform="translate(0 0)"/><path class="cls-1" d="M332.59,118.05H322.32v-6.78a44.88,44.88,0,0,1-9,6.32,20.85,20.85,0,0,1-9.51,2.15,21.22,21.22,0,0,1-7.51-1.31,15.76,15.76,0,0,1-6.15-4.15,19.41,19.41,0,0,1-4.07-7.16,33.08,33.08,0,0,1-1.45-10.49V57h10.27V91.76a74.48,74.48,0,0,0,.36,8.07,15.61,15.61,0,0,0,1.61,5.6,8,8,0,0,0,3.41,3.44,14.08,14.08,0,0,0,6.21,1.09,18,18,0,0,0,8-2.13,36.66,36.66,0,0,0,7.82-5.25V57h10.27Z" transform="translate(0 0)"/><path class="cls-1" d="M395.43,118.05H385.16V83.29a71.07,71.07,0,0,0-.41-7.84,16.52,16.52,0,0,0-1.56-5.82,7.92,7.92,0,0,0-3.49-3.41,13.85,13.85,0,0,0-6.12-1.12,17.44,17.44,0,0,0-7.9,2.05,40.28,40.28,0,0,0-7.95,5.32v45.58H347.45V57h10.28v6.77a40.47,40.47,0,0,1,9.07-6.28,21.27,21.27,0,0,1,9.45-2.19q9,0,14.1,5.93t5.08,17.19Z" transform="translate(0 0)"/><path class="cls-1" d="M436.37,119.47q-14.6,0-22.66-8.22t-8.06-23.37q0-14.91,7.82-23.74t20.44-8.83A28.54,28.54,0,0,1,444,57a20,20,0,0,1,7.65,5.14,23.57,23.57,0,0,1,5,8.55A38.06,38.06,0,0,1,458.39,83v5.57h-42.3q0,10.66,5.36,16.29t14.81,5.63a28.91,28.91,0,0,0,6.64-.77,31.56,31.56,0,0,0,5.87-2,40.89,40.89,0,0,0,4.7-2.44,27.85,27.85,0,0,0,3.17-2.21h.6v11.2l-4.48,1.78a49.27,49.27,0,0,1-4.81,1.67q-3,.81-5.44,1.25A34.8,34.8,0,0,1,436.37,119.47Zm12-38.74a28.52,28.52,0,0,0-1-7.16,15,15,0,0,0-2.52-5.09A11.45,11.45,0,0,0,440.27,65a20.49,20.49,0,0,0-13.93,0,16.79,16.79,0,0,0-5.22,3.58,17.15,17.15,0,0,0-3.5,5.33,23.06,23.06,0,0,0-1.53,6.81Z" transform="translate(0 0)"/><path class="cls-1" d="M516.75,118.05H506.48V83.29a71.07,71.07,0,0,0-.41-7.84,16.52,16.52,0,0,0-1.56-5.82A8,8,0,0,0,501,66.22a13.87,13.87,0,0,0-6.13-1.12A17.43,17.43,0,0,0,487,67.15a40.28,40.28,0,0,0-7.95,5.32v45.58H468.77V57h10.28v6.77a40.47,40.47,0,0,1,9.07-6.28,21.27,21.27,0,0,1,9.45-2.19q9,0,14.1,5.93t5.08,17.19Z" transform="translate(0 0)"/><path class="cls-1" d="M557.69,119.47q-14.6,0-22.66-8.22T527,87.88q0-14.91,7.82-23.74t20.44-8.83a28.58,28.58,0,0,1,10,1.64,20,20,0,0,1,7.65,5.14,23.57,23.57,0,0,1,5,8.55A38.06,38.06,0,0,1,579.71,83v5.57h-42.3q0,10.66,5.36,16.29t14.81,5.63a29,29,0,0,0,6.64-.77,31.56,31.56,0,0,0,5.87-2,41.74,41.74,0,0,0,4.7-2.44,27.85,27.85,0,0,0,3.17-2.21h.6v11.2l-4.48,1.78a50.2,50.2,0,0,1-4.81,1.67c-2,.54-3.82,1-5.44,1.25A34.8,34.8,0,0,1,557.69,119.47Zm12-38.74a28.49,28.49,0,0,0-1-7.16,14.78,14.78,0,0,0-2.51-5.09A11.45,11.45,0,0,0,561.59,65a20.49,20.49,0,0,0-13.93,0,16.56,16.56,0,0,0-5.22,3.58,17.15,17.15,0,0,0-3.5,5.33,23.06,23.06,0,0,0-1.53,6.81Z" transform="translate(0 0)"/><path class="cls-1" d="M606.1,118.05H593V102.48H606.1Z" transform="translate(0 0)"/><path class="cls-1" d="M648.24,119.42a33.05,33.05,0,0,1-11.53-1.94,23.78,23.78,0,0,1-9-5.88,26.89,26.89,0,0,1-5.85-9.92,43.09,43.09,0,0,1-2.07-14.07,40.12,40.12,0,0,1,2.15-13.88,30,30,0,0,1,5.77-9.84,23.84,23.84,0,0,1,9-6.14,30.75,30.75,0,0,1,11.56-2.16,33.1,33.1,0,0,1,9.7,1.42,51.84,51.84,0,0,1,8.33,3.28V71.82h-.6c-.73-.62-1.67-1.33-2.81-2.13a37.39,37.39,0,0,0-4.18-2.46,27.87,27.87,0,0,0-5-1.92,20.71,20.71,0,0,0-5.58-.82,15.6,15.6,0,0,0-12.81,6q-4.85,6-4.84,17.08,0,10.81,4.67,16.86t13,6a22.65,22.65,0,0,0,9.57-2.08,29.8,29.8,0,0,0,8-5.35h.6v11.53c-1,.47-2.29,1-3.82,1.72a29.35,29.35,0,0,1-4.16,1.5c-1.75.51-3.31.9-4.7,1.18A28.77,28.77,0,0,1,648.24,119.42Z" transform="translate(0 0)"/><path class="cls-1" d="M725.84,87.56q0,15.41-7.43,23.8t-19.79,8.38q-12.74,0-20-8.66T671.3,87.56q0-15.3,7.51-23.78t19.81-8.47q12.36,0,19.79,8.45T725.84,87.56Zm-10.6,0q0-11.86-4.32-17.63t-12.3-5.76q-8,0-12.37,5.76T681.9,87.56q0,11.47,4.35,17.4t12.37,5.93q7.93,0,12.27-5.82T715.24,87.56Z" transform="translate(0 0)"/><path class="cls-1" d="M805.68,118.05V82.75c0-2.81-.11-5.4-.33-7.79a15.68,15.68,0,0,0-1.36-5.6,7.08,7.08,0,0,0-3.12-3.23,12.1,12.1,0,0,0-5.46-1A14.46,14.46,0,0,0,788.6,67a35.41,35.41,0,0,0-7.51,5.6c0,.62.08,1.36.13,2.21s.09,1.87.09,3v40.17H771V82.75c0-2.81-.11-5.4-.33-7.79a15.48,15.48,0,0,0-1.36-5.6,7.08,7.08,0,0,0-3.12-3.23,12.1,12.1,0,0,0-5.46-1,14.27,14.27,0,0,0-7,2.07,37.55,37.55,0,0,0-7.1,5.3v45.58H736.39V57h10.27v6.77a36.77,36.77,0,0,1,8-6.25,17.5,17.5,0,0,1,8.71-2.22A18.53,18.53,0,0,1,773,57.77a15.43,15.43,0,0,1,6.37,8.09A41.31,41.31,0,0,1,788.41,58,18.3,18.3,0,0,1,798,55.31a20,20,0,0,1,7.16,1.23,14.13,14.13,0,0,1,5.63,4,19.13,19.13,0,0,1,3.79,6.94A34.25,34.25,0,0,1,816,77.88v40.17Z" transform="translate(0 0)"/><path class="cls-2" d="M1009.9,86.5q0,42,.05,84.09c0,2-.4,2.41-2.41,2.41q-84.09-.1-168.18,0c-2,0-2.41-.4-2.41-2.41q.1-84.09,0-168.18c0-2,.41-2.41,2.41-2.41q84.09.11,168.18,0c2,0,2.42.4,2.41,2.41Q1009.83,44.46,1009.9,86.5ZM856.37,99.67c.91,8.14,2.36,16.19,3.83,24.24.79,5.18,1.57,10.37,2.39,15.55q2.07,13.06,4.19,26.12c.44,2.71,1.73,4.82,4.79,4.49,3.3-.36,6.56-1.18,9.84-1.79,13.29-1.72,26.49-4,39.69-6.3,8-1.27,16.07-2.51,24.09-3.81q20.49-3.3,41-6.66c3.92-.65,4.94-2.13,4.38-5.94-.51-3.53-1.06-7.06-1.59-10.59,3.46-2.24,6.76-4.82,10.44-6.64,3.23-1.59,3.46-3.74,2.93-6.77-1.6-9.13-3-18.28-4.55-27.43-3.75-22.69-7.53-45.38-11.18-68.09-.35-2.18-1.24-2.86-3.24-3.4-4.6-1.27-9.52-1.43-13.8-3.85.23-4.83-1.14-9.46-1.85-14.17C967.22,1.48,965.2.31,962.18.8s-5.9,1-8.85,1.57L937.25,5,921.77,7.53a80.27,80.27,0,0,0-12.11,2l-18.94,3-19.4,3.15c-7.83,1.25-15.67,2.47-23.5,3.73-2.75.45-4.31,2.1-3.88,4.9,1,6.29,2.14,12.56,3.23,18.83a142.26,142.26,0,0,0,2.64,16.15Q851,67,852.16,74.83c.54,3.11.36,6.35,1.69,9.32A116.17,116.17,0,0,0,856.37,99.67Z" transform="translate(0 0)"/><path class="cls-3" d="M969.54,18.8c4.28,2.42,9.2,2.58,13.8,3.85,2,.54,2.89,1.22,3.24,3.4,3.65,22.71,7.43,45.4,11.18,68.09,1.51,9.15,3,18.3,4.55,27.43.53,3,.3,5.18-2.93,6.77-3.68,1.82-7,4.4-10.44,6.64-1.48.25-2.57,1.26-3.82,2-4.13,2.33-7.89,5.29-12.26,7.22-.21-1.3-.35-2.61-.65-3.89-1.06-4.55-.87-9.34-2.68-13.75a14,14,0,0,0-.34-4.65c-1.42-8.67-2.71-17.36-4.28-26-1-5.46-1.24-11-2.74-16.43C960,62.09,956.79,44.89,954,27.64c-.43-3.07-.78-6.15-1.31-9.2-.4-2.3-.18-3.11,2.61-2.47C960,17.05,964.57,19,969.54,18.8Z" transform="translate(0 0)"/><path class="cls-4" d="M881.41,168.28c-3.28.61-6.54,1.43-9.84,1.79-3.06.33-4.35-1.78-4.79-4.49q-2.12-13.05-4.19-26.12c-.82-5.18-1.6-10.37-2.39-15.55a2.84,2.84,0,0,0,2.12-.86c2.76-3.06,5.59-6.06,8.24-9.22,1.86-2.22,3.35-4.55,2.21-7.85-.53-1.54-.43-3.65,1.91-4.34,4,2.3,7.31,2,10.29-1.06,3.74-3.79,7.46-7.6,11.23-11.36.73-.73,1.25-2,2.67-1.56a1.94,1.94,0,0,0,1.4,1.1l31.59,23.11c-2.24,2.53-4.55,5-6.72,7.62-1.88,2.26-4.41,4.15-4.71,7.44-15.41.65-30.86-.05-46.27,1.15a54.84,54.84,0,0,0,5.56,1.14l30.65,5.25c0,1.55-1.23,2.32-2.16,3.24-2.74,2.73-5.21,5.71-7.94,8.47-4.12,4.15-7.72,8.77-11.87,12.94C885.74,161.79,882.58,164.35,881.41,168.28Z" transform="translate(0 0)"/><path class="cls-5" d="M881.41,168.28c1.17-3.93,4.33-6.49,7-9.16,4.15-4.17,7.75-8.79,11.87-12.94,2.73-2.76,5.2-5.74,7.94-8.47.93-.92,2.15-1.69,2.16-3.24l27.55,4.4a8.32,8.32,0,0,1-.75,2.52c-3.52,5-8,9.24-11.79,14-1.61,2-4.37,3.4-4.28,6.57C907.9,164.28,894.7,166.56,881.41,168.28Z" transform="translate(0 0)"/><path class="cls-6" d="M852.16,74.83l-2.35-15.57c.79,0,1.7.09,2.16-.65,1.56-2.5,3.94-4.24,5.85-6.4Q872.94,35.1,888,18c1.38-1.57,3.06-3,2.69-5.47l18.94-3c0,2.36-1.66,3.8-3.07,5.37-2.15,2.42-4.34,4.8-6.49,7.23-8.27,9.36-16.72,18.57-24.73,28.16-5.19,6.22-11.15,11.75-16,18.31C857.54,71.08,855.56,73.91,852.16,74.83Z" transform="translate(0 0)"/><path class="cls-7" d="M921.1,162c-.09-3.17,2.67-4.55,4.28-6.57,3.8-4.78,8.27-9,11.79-14a8.32,8.32,0,0,0,.75-2.52l16.13,2.38a135.93,135.93,0,0,0,18.81,2.91c4.37-1.93,8.13-4.89,12.26-7.22,1.25-.7,2.34-1.71,3.82-2,.53,3.53,1.08,7.06,1.59,10.59.56,3.81-.46,5.29-4.38,5.94q-20.48,3.39-41,6.66C937.17,159.47,929.13,160.71,921.1,162Z" transform="translate(0 0)"/><path class="cls-8" d="M969.54,18.8c-5,.19-9.55-1.75-14.27-2.83-2.79-.64-3,.17-2.61,2.47.53,3,.88,6.13,1.31,9.2-2.06,0-3.34,1.17-4.68,2.68-3.76,4.18-6.32,9.82-12.74,11-.27,0-.43.69-.65,1.06-3.78-.92-7.64-1.63-11.33-2.82-2.29-.74-3.37,0-4.67,1.73-7,9.55-14.3,18.94-21.24,28.56-2,2.72-3.53,3.31-5.94.93a9.88,9.88,0,0,0,1.81-1.44c5.33-6.55,10.58-13.17,15.94-19.69,3.11-3.77,5.43-8.36,9.7-11a33.91,33.91,0,0,0,8.76-7c6.92-8.13,14.2-16,21.11-24.1,1.27-1.5,3.41-2.73,3.29-5.21,2.95-.53,5.89-1.09,8.85-1.57s5,.68,5.51,3.83C968.4,9.34,969.77,14,969.54,18.8Z" transform="translate(0 0)"/><path class="cls-9" d="M921.77,7.53,937.25,5a4,4,0,0,1-.92,3.1c-3.13,3.48-6.16,7-9.25,10.56q-7.61,8.63-15.24,17.21-5.31,6-10.62,12c-4.78,5.45-9.53,10.92-14.33,16.34-.85,1-.75,2-.78,3.16l-6-2.73c-1.31-1.31-3.1-1.73-4.69-2.53.86-3.22,3.85-4.7,5.71-7.09,9.9-12.73,21.19-24.25,31.7-36.44C915.88,15,919.46,11.76,921.77,7.53Z" transform="translate(0 0)"/><path class="cls-10" d="M886.11,67.35c0-1.11-.07-2.19.78-3.16,4.8-5.42,9.55-10.89,14.33-16.34q5.29-6,10.62-12,7.62-8.61,15.24-17.21c3.09-3.51,6.12-7.08,9.25-10.56a4,4,0,0,0,.92-3.1l16.08-2.59c.12,2.48-2,3.71-3.29,5.21-6.91,8.14-14.19,16-21.11,24.1a33.91,33.91,0,0,1-8.76,7c-4.27,2.59-6.59,7.18-9.7,11-5.36,6.52-10.61,13.14-15.94,19.69a9.88,9.88,0,0,1-1.81,1.44A21.69,21.69,0,0,1,886.11,67.35Z" transform="translate(0 0)"/><path class="cls-11" d="M921.77,7.53c-2.31,4.23-5.89,7.44-9,11C902.28,30.75,891,42.27,881.09,55c-1.86,2.39-4.85,3.87-5.71,7.09-1.52.89-3,1.82-4.57,2.67-1.13.63-1.8,1.3-.73,2.53-3.24,2.12-5,5.66-7.65,8.26-2.91,2.82-4.48,7-8.58,8.6-1.33-3-1.15-6.21-1.69-9.32,3.4-.92,5.38-3.75,7.22-6.24,4.84-6.56,10.8-12.09,16-18.31,8-9.59,16.46-18.8,24.73-28.16,2.15-2.43,4.34-4.81,6.49-7.23,1.41-1.57,3-3,3.07-5.37A80.27,80.27,0,0,1,921.77,7.53Z" transform="translate(0 0)"/><path class="cls-12" d="M890.72,12.5c.37,2.44-1.31,3.9-2.69,5.47Q873,35.1,857.82,52.21c-1.91,2.16-4.29,3.9-5.85,6.4-.46.74-1.37.63-2.16.65a142.26,142.26,0,0,1-2.64-16.15c2.84-.79,3.91-3.45,5.67-5.39,4.63-5.12,9.46-10.07,13.86-15.38,1.69-2.05,4.41-3.56,4.62-6.69Z" transform="translate(0 0)"/><path class="cls-10" d="M874.68,101.64c-2.34.69-2.44,2.8-1.91,4.34,1.14,3.3-.35,5.63-2.21,7.85-2.65,3.16-5.48,6.16-8.24,9.22a2.84,2.84,0,0,1-2.12.86c-1.47-8-2.92-16.1-3.83-24.24a6.79,6.79,0,0,0,2.58-2c4.25-4.85,8.52-9.67,12.93-14.36,2.72-2.9,5-6.27,8.28-8.61,2.88,1.26,5.05,3.61,7.72,5.17,2,1.13,1.65,2.09.47,3.63C883.73,89.49,879.23,95.58,874.68,101.64Z" transform="translate(0 0)"/><path class="cls-9" d="M880.16,74.69c-3.31,2.34-5.56,5.71-8.28,8.61C867.47,88,863.2,92.81,859,97.66a6.79,6.79,0,0,1-2.58,2,116.17,116.17,0,0,1-2.52-15.52c4.1-1.61,5.67-5.78,8.58-8.6,2.69-2.6,4.41-6.14,7.65-8.26l6,3.89C877.29,72.52,879.2,73.05,880.16,74.69Z" transform="translate(0 0)"/><path class="cls-1" d="M871.32,15.65c-.21,3.13-2.93,4.64-4.62,6.69-4.4,5.31-9.23,10.26-13.86,15.38-1.76,1.94-2.83,4.6-5.67,5.39-1.09-6.27-2.27-12.54-3.23-18.83-.43-2.8,1.13-4.45,3.88-4.9C855.65,18.12,863.49,16.9,871.32,15.65Z" transform="translate(0 0)"/><path class="cls-5" d="M920.43,126.93c.3-3.29,2.83-5.18,4.71-7.44,2.17-2.6,4.48-5.09,6.72-7.62,5.93-2.81,11-6.92,16.6-10.34a1.15,1.15,0,0,0,.29-1.94q-.4-4-.79-8c3.77-.49,5.16-3.87,7.49-6.12,2.16-2.09,3.39-5.24,6.72-6,1.5,5.38,1.75,11,2.74,16.43,1.57,8.65,2.86,17.34,4.28,26a14,14,0,0,1,.34,4.65l-15.49.16c-1.23,0-2.46-.09-3.7-.08Z" transform="translate(0 0)"/><path class="cls-4" d="M962.17,79.43c-3.33.77-4.56,3.92-6.72,6-2.33,2.25-3.72,5.63-7.49,6.12a5,5,0,0,1-.65-2.57q-3.55-22-7.14-43.93c-.07-3-2.95-1.65-4.27-2.72.22-.37.38-1,.65-1.06,6.42-1.14,9-6.78,12.74-11,1.34-1.51,2.62-2.66,4.68-2.68C956.79,44.89,960,62.09,962.17,79.43Z" transform="translate(0 0)"/><path class="cls-13" d="M954,126.68l15.49-.16c1.81,4.41,1.62,9.2,2.68,13.75.3,1.28.44,2.59.65,3.89a135.93,135.93,0,0,1-18.81-2.91Q954,134,954,126.68Z" transform="translate(0 0)"/><path class="cls-14" d="M935.9,42.34c1.32,1.07,4.2-.3,4.27,2.72a146.37,146.37,0,0,0-15.74,15.66L907.92,77.3a1.54,1.54,0,0,0-.55,1.49c-3.45,2.37-6.61,5-8.5,8.87-1.42-.4-1.94.83-2.67,1.56-3.77,3.76-7.49,7.57-11.23,11.36-3,3-6.31,3.36-10.29,1.06,4.55-6.06,9.05-12.15,13.67-18.15,1.18-1.54,1.48-2.5-.47-3.63-2.67-1.56-4.84-3.91-7.72-5.17-1-1.64-2.87-2.17-4.09-3.51.44-2.73,2.48-4.48,4-6.56l6,2.73a21.69,21.69,0,0,0,6.61,3.39c2.41,2.38,4,1.79,5.94-.93,6.94-9.62,14.2-19,21.24-28.56,1.3-1.77,2.38-2.47,4.67-1.73C928.26,40.71,932.12,41.42,935.9,42.34Z" transform="translate(0 0)"/><path class="cls-14" d="M948.75,99.59a1.15,1.15,0,0,1-.29,1.94c-5.55,3.42-10.67,7.53-16.6,10.34L900.27,88.76c2.15-3.64,5.17-6.52,8.18-9.41,3.62,1.81,7.21,3.69,10.87,5.4,3.27,1.54,6.2,3.81,9.81,4.63C935.5,93.11,941.82,96.93,948.75,99.59Z" transform="translate(0 0)"/><path class="cls-15" d="M954,126.68q0,7.27,0,14.57l-16.13-2.38-27.55-4.4-30.65-5.25a54.84,54.84,0,0,1-5.56-1.14c15.41-1.2,30.86-.5,46.27-1.15l29.91-.33C951.58,126.59,952.81,126.65,954,126.68Z" transform="translate(0 0)"/><path class="cls-16" d="M908.45,79.35c-3,2.89-6,5.77-8.18,9.41a1.94,1.94,0,0,1-1.4-1.1c1.89-3.86,5-6.5,8.5-8.87Z" transform="translate(0 0)"/><path class="cls-16" d="M880.07,64.62c-1.52,2.08-3.56,3.83-4,6.56l-6-3.89c-1.07-1.23-.4-1.9.73-2.53,1.55-.85,3.05-1.78,4.57-2.67C877,62.89,878.76,63.31,880.07,64.62Z" transform="translate(0 0)"/><path class="cls-16" d="M948.75,99.59c-6.93-2.66-13.25-6.48-19.62-10.21-.22-1.09-.47-2.17-.65-3.27l-4.05-25.39a146.37,146.37,0,0,1,15.74-15.66q3.58,22,7.14,43.93a5,5,0,0,0,.65,2.57Q948.35,95.57,948.75,99.59Z" transform="translate(0 0)"/><path class="cls-8" d="M924.43,60.72l4.05,25.39c.18,1.1.43,2.18.65,3.27-3.61-.82-6.54-3.09-9.81-4.63-3.66-1.71-7.25-3.59-10.87-5.4l-1.08-.56a1.54,1.54,0,0,1,.55-1.49Z" transform="translate(0 0)"/></g></g></svg>